name analog
datacolumns 19
datarows 64
range 0.1775 0.209
endheader
time	ground_force_vx	ground_force_vy	ground_force_vz	ground_force_px	ground_force_py	ground_force_pz	l_ground_force_vx	l_ground_force_vy	l_ground_force_vz	l_ground_force_px	l_ground_force_py	l_ground_force_pz	ground_torque_x	ground_torque_y	ground_torque_z	l_ground_torque_x	l_ground_torque_y	l_ground_torque_z
0.1775	-0.0	-0.0	-0.0	-0.0	-0.0	-0.0	10.886305809020996	-14.548068046569824	-499.4907531738281	-0.0	-0.0	-0.0	-0.0	-0.0	-0.0	146170.75	13509.21875	3055.507080078125
0.178	-0.0	-0.0	-0.0	-0.0	-0.0	-0.0	10.61828327178955	-14.39836883544922	-497.2374267578125	-0.0	-0.0	-0.0	-0.0	-0.0	-0.0	146595.625	13602.3837890625	3106.369384765625
0.1785	-0.0	-0.0	-0.0	-0.0	-0.0	-0.0	10.875179290771484	-14.208585739135742	-497.38861083984375	-0.0	-0.0	-0.0	-0.0	-0.0	-0.0	146424.5625	14049.12890625	3135.5634765625
0.179	-0.0	-0.0	-0.0	-0.0	-0.0	-0.0	11.57125186920166	-14.004467964172363	-495.2932434082031	-0.0	-0.0	-0.0	-0.0	-0.0	-0.0	146533.53125	13936.13671875	3174.06982421875
0.1795	-0.0	-0.0	-0.0	-0.0	-0.0	-0.0	11.557262420654297	-13.502533912658691	-495.3060607910156	-0.0	-0.0	-0.0	-0.0	-0.0	-0.0	146394.671875	14146.7158203125	3280.8720703125
0.18	-0.0	-0.0	-0.0	-0.0	-0.0	-0.0	11.78803825378418	-12.884516716003418	-493.5464782714844	-0.0	-0.0	-0.0	-0.0	-0.0	-0.0	145960.484375	14273.146484375	3243.275146484375
0.1805	-0.0	-0.0	-0.0	-0.0	-0.0	-0.0	11.891484260559082	-11.683094024658203	-492.7099609375	-0.0	-0.0	-0.0	-0.0	-0.0	-0.0	146208.125	14353.048828125	3225.751953125
0.181	-0.0	-0.0	-0.0	-0.0	-0.0	-0.0	11.414250373840332	-10.814456939697266	-492.3429260253906	-0.0	-0.0	-0.0	-0.0	-0.0	-0.0	146545.28125	14316.8642578125	3176.098388671875
0.1815	-0.0	-0.0	-0.0	-0.0	-0.0	-0.0	11.340105056762695	-9.386602401733398	-491.25634765625	-0.0	-0.0	-0.0	-0.0	-0.0	-0.0	146568.28125	14580.6904296875	3103.9453125
0.182	-0.0	-0.0	-0.0	-0.0	-0.0	-0.0	11.709823608398438	-7.997856140136719	-490.3647155761719	-0.0	-0.0	-0.0	-0.0	-0.0	-0.0	146839.203125	14891.802734375	3191.747802734375
0.1825	-0.0	-0.0	-0.0	-0.0	-0.0	-0.0	12.049405097961426	-7.385464668273926	-492.9057312011719	-0.0	-0.0	-0.0	-0.0	-0.0	-0.0	147317.015625	15027.619140625	3175.642578125
0.183	-0.0	-0.0	-0.0	-0.0	-0.0	-0.0	11.55682373046875	-6.9044694900512695	-493.6396179199219	-0.0	-0.0	-0.0	-0.0	-0.0	-0.0	147998.96875	14868.25	3096.690673828125
0.1835	-0.0	-0.0	-0.0	-0.0	-0.0	-0.0	11.17755889892578	-6.166930675506592	-494.713623046875	-0.0	-0.0	-0.0	-0.0	-0.0	-0.0	148361.578125	15196.67578125	3040.258056640625
0.184	-0.0	-0.0	-0.0	-0.0	-0.0	-0.0	11.064555168151855	-6.101536750793457	-493.85833740234375	-0.0	-0.0	-0.0	-0.0	-0.0	-0.0	149053.546875	15380.734375	2954.01123046875
0.1845	-0.0	-0.0	-0.0	-0.0	-0.0	-0.0	11.161541938781738	-5.652587890625	-493.8264465332031	-0.0	-0.0	-0.0	-0.0	-0.0	-0.0	148884.21875	15327.95703125	2889.27001953125
0.185	-0.0	-0.0	-0.0	-0.0	-0.0	-0.0	10.758159637451172	-5.411671161651611	-494.049560546875	-0.0	-0.0	-0.0	-0.0	-0.0	-0.0	148925.140625	15342.9072265625	2953.882568359375
0.1855	-0.0	-0.0	-0.0	-0.0	-0.0	-0.0	11.007838249206545	-5.740909576416016	-492.9375305175781	-0.0	-0.0	-0.0	-0.0	-0.0	-0.0	148942.546875	15187.166015625	2897.326904296875
0.186	-0.0	-0.0	-0.0	-0.0	-0.0	-0.0	10.887374877929688	-5.917552947998047	-493.3512573242188	-0.0	-0.0	-0.0	-0.0	-0.0	-0.0	149084.640625	15397.595703125	2829.860107421875
0.1865	-0.0	-0.0	-0.0	-0.0	-0.0	-0.0	10.065080642700195	-5.893683910369873	-492.78509521484375	-0.0	-0.0	-0.0	-0.0	-0.0	-0.0	148801.015625	15674.4365234375	2511.0712890625
0.187	-0.0	-0.0	-0.0	-0.0	-0.0	-0.0	9.597736358642578	-5.781615257263184	-489.32232666015625	-0.0	-0.0	-0.0	-0.0	-0.0	-0.0	148744.1875	15726.16015625	2289.488525390625
0.1875	-0.0	-0.0	-0.0	-0.0	-0.0	-0.0	8.884398460388184	-5.700064182281494	-489.8597412109375	-0.0	-0.0	-0.0	-0.0	-0.0	-0.0	148722.3125	15961.89453125	2251.364990234375
0.188	-0.0	-0.0	-0.0	-0.0	-0.0	-0.0	9.30820655822754	-5.381225109100342	-490.0899963378906	-0.0	-0.0	-0.0	-0.0	-0.0	-0.0	148819.21875	16388.263671875	2289.384033203125
0.1885	-0.0	-0.0	-0.0	-0.0	-0.0	-0.0	9.095965385437012	-5.099029064178467	-490.2778015136719	-0.0	-0.0	-0.0	-0.0	-0.0	-0.0	149072.515625	16698.59765625	2103.384765625
0.189	-0.0	-0.0	-0.0	-0.0	-0.0	-0.0	8.1791353225708	-4.745819091796875	-489.8597412109375	-0.0	-0.0	-0.0	-0.0	-0.0	-0.0	148819.3125	16880.431640625	1899.1539306640625
0.1895	-0.0	-0.0	-0.0	-0.0	-0.0	-0.0	7.942448616027832	-4.545745849609375	-489.5105590820313	-0.0	-0.0	-0.0	-0.0	-0.0	-0.0	149516.625	17150.037109375	1782.4415283203125
0.19	-0.0	-0.0	-0.0	-0.0	-0.0	-0.0	7.391997814178467	-4.498970031738281	-489.4891052246094	-0.0	-0.0	-0.0	-0.0	-0.0	-0.0	149465.578125	17690.302734375	1738.5478515625
0.1905	-0.0	-0.0	-0.0	-0.0	-0.0	-0.0	6.835882663726807	-3.816065549850464	-489.5105590820313	-0.0	-0.0	-0.0	-0.0	-0.0	-0.0	149410.375	17639.12109375	1508.91162109375
0.191	-0.0	-0.0	-0.0	-0.0	-0.0	-0.0	6.433985710144043	-3.231070041656494	-488.3710021972656	-0.0	-0.0	-0.0	-0.0	-0.0	-0.0	149394.671875	18047.830078125	1358.833740234375
0.1915	-0.0	-0.0	-0.0	-0.0	-0.0	-0.0	6.405884742736816	-3.1795806884765625	-487.8384399414063	-0.0	-0.0	-0.0	-0.0	-0.0	-0.0	149325.4375	18251.263671875	1316.768798828125
0.192	-0.0	-0.0	-0.0	-0.0	-0.0	-0.0	6.097768306732178	-3.0405385494232178	-487.5643005371094	-0.0	-0.0	-0.0	-0.0	-0.0	-0.0	149300.234375	18727.099609375	1118.1689453125
0.1925	-0.0	-0.0	-0.0	-0.0	-0.0	-0.0	5.8084635734558105	-2.691727876663208	-487.1579284667969	-0.0	-0.0	-0.0	-0.0	-0.0	-0.0	149165.9375	18814.86328125	1183.642333984375
0.193	-0.0	-0.0	-0.0	-0.0	-0.0	-0.0	6.005308628082275	-2.47686767578125	-485.9432373046875	-0.0	-0.0	-0.0	-0.0	-0.0	-0.0	149299.5625	19303.298828125	1108.951416015625
0.1935	-0.0	-0.0	-0.0	-0.0	-0.0	-0.0	5.299561977386475	-2.518975257873535	-487.14306640625	-0.0	-0.0	-0.0	-0.0	-0.0	-0.0	149552.484375	19626.37109375	982.0425415039062
0.194	-0.0	-0.0	-0.0	-0.0	-0.0	-0.0	4.25811767578125	-2.473007202148437	-487.5063171386719	-0.0	-0.0	-0.0	-0.0	-0.0	-0.0	149667.640625	20165.8046875	693.5205688476562
0.1945	-0.0	-0.0	-0.0	-0.0	-0.0	-0.0	3.6340253353118896	-2.074007987976074	-487.8428955078125	-0.0	-0.0	-0.0	-0.0	-0.0	-0.0	149545.453125	20482.556640625	475.64013671875
0.195	-0.0	-0.0	-0.0	-0.0	-0.0	-0.0	2.615532159805298	-1.763574481010437	-487.3930358886719	-0.0	-0.0	-0.0	-0.0	-0.0	-0.0	149625.890625	21107.21484375	69.35670471191406
0.1955	-0.0	-0.0	-0.0	-0.0	-0.0	-0.0	1.6196192502975464	-1.546918511390686	-485.5003967285156	-0.0	-0.0	-0.0	-0.0	-0.0	-0.0	149465.515625	21402.533203125	-117.89720153808594
0.196	-0.0	-0.0	-0.0	-0.0	-0.0	-0.0	0.2205994427204132	-0.6839069128036499	-486.6370239257813	-0.0	-0.0	-0.0	-0.0	-0.0	-0.0	149844.984375	22153.220703125	-452.5903015136719
0.1965	-0.0	-0.0	-0.0	-0.0	-0.0	-0.0	-0.864402711391449	-0.0452110804617404	-488.2843933105469	-0.0	-0.0	-0.0	-0.0	-0.0	-0.0	150240.921875	22763.392578125	-949.1700439453124
0.197	-0.0	-0.0	-0.0	-0.0	-0.0	-0.0	-1.7986458539962769	0.443402498960495	-489.0723571777344	-0.0	-0.0	-0.0	-0.0	-0.0	-0.0	150857.90625	23453.3359375	-1150.4974365234375
0.1975	-0.0	-0.0	-0.0	-0.0	-0.0	-0.0	-2.5258655548095703	1.0582726001739502	-491.6117858886719	-0.0	-0.0	-0.0	-0.0	-0.0	-0.0	152279.40625	24011.375	-1380.6387939453125
0.198	-0.0	-0.0	-0.0	-0.0	-0.0	-0.0	-2.8851821422576904	1.0360528230667114	-495.97259521484375	-0.0	-0.0	-0.0	-0.0	-0.0	-0.0	153158.671875	24806.890625	-1581.5150146484375
0.1985	-0.0	-0.0	-0.0	-0.0	-0.0	-0.0	-3.4383528232574463	0.882141649723053	-499.4592895507813	-0.0	-0.0	-0.0	-0.0	-0.0	-0.0	154325.25	25561.955078125	-1714.8681640625
0.199	-0.0	-0.0	-0.0	-0.0	-0.0	-0.0	-3.881723165512085	0.6405400633811951	-503.7377014160156	-0.0	-0.0	-0.0	-0.0	-0.0	-0.0	155727.21875	25916.837890625	-1789.9261474609375
0.1995	-0.0	-0.0	-0.0	-0.0	-0.0	-0.0	-3.837432384490967	0.2421967983245849	-506.6168212890625	-0.0	-0.0	-0.0	-0.0	-0.0	-0.0	156576.71875	26777.787109375	-1886.6114501953125
0.2	-0.0	-0.0	-0.0	-0.0	-0.0	-0.0	-3.526173591613769	-0.3536057770252228	-509.8489685058594	-0.0	-0.0	-0.0	-0.0	-0.0	-0.0	157436.96875	27391.6015625	-1893.6533203125
0.2005	-0.0	-0.0	-0.0	-0.0	-0.0	-0.0	-3.8146393299102783	-1.3248252868652344	-512.9039916992188	-0.0	-0.0	-0.0	-0.0	-0.0	-0.0	158268.484375	27929.24609375	-2049.868408203125
0.201	-0.0	-0.0	-0.0	-0.0	-0.0	-0.0	-4.169174671173096	-2.274341106414795	-515.2598266601562	-0.0	-0.0	-0.0	-0.0	-0.0	-0.0	158900.28125	28666.27734375	-2332.208740234375
0.2015	-0.0	-0.0	-0.0	-0.0	-0.0	-0.0	-5.366783618927002	-3.907689332962036	-518.4015502929688	-0.0	-0.0	-0.0	-0.0	-0.0	-0.0	159488.046875	29240.83203125	-2697.004150390625
0.202	-0.0	-0.0	-0.0	-0.0	-0.0	-0.0	-5.920961856842041	-5.056256294250488	-519.1884765625	-0.0	-0.0	-0.0	-0.0	-0.0	-0.0	159634.515625	30082.90234375	-3090.770751953125
0.2025	-0.0	-0.0	-0.0	-0.0	-0.0	-0.0	-7.074923038482666	-6.492117881774902	-520.2359619140625	-0.0	-0.0	-0.0	-0.0	-0.0	-0.0	159696.890625	30732.337890625	-3366.053466796875
0.203	-0.0	-0.0	-0.0	-0.0	-0.0	-0.0	-7.409145832061768	-7.19762134552002	-520.5803833007812	-0.0	-0.0	-0.0	-0.0	-0.0	-0.0	160000.71875	31238.3203125	-3588.730224609375
0.20350000000000001	-0.0	-0.0	-0.0	-0.0	-0.0	-0.0	-7.387763023376465	-8.014087677001953	-520.2300415039062	-0.0	-0.0	-0.0	-0.0	-0.0	-0.0	159979.40625	31834.693359375	-3708.00244140625
0.20400000000000001	-0.0	-0.0	-0.0	-0.0	-0.0	-0.0	-7.227359771728516	-8.170608520507812	-521.8893432617188	-0.0	-0.0	-0.0	-0.0	-0.0	-0.0	160286.765625	32339.01171875	-3804.78515625
0.20450000000000002	-0.0	-0.0	-0.0	-0.0	-0.0	-0.0	-7.008152008056641	-8.498574256896973	-523.8052978515625	-0.0	-0.0	-0.0	-0.0	-0.0	-0.0	160621.546875	32961.86328125	-3812.6787109375
0.20500000000000002	-0.0	-0.0	-0.0	-0.0	-0.0	-0.0	-6.830730438232422	-8.720104217529297	-522.926513671875	-0.0	-0.0	-0.0	-0.0	-0.0	-0.0	160615.59375	33595.7109375	-3626.085693359375
0.20550000000000002	-0.0	-0.0	-0.0	-0.0	-0.0	-0.0	-6.255346775054932	-8.588667869567871	-525.8125610351562	-0.0	-0.0	-0.0	-0.0	-0.0	-0.0	160742.4375	34165.828125	-3625.64306640625
0.20600000000000002	-0.0	-0.0	-0.0	-0.0	-0.0	-0.0	-6.430192470550537	-8.280824661254883	-525.2086791992188	-0.0	-0.0	-0.0	-0.0	-0.0	-0.0	160462.890625	34651.2109375	-3640.96923828125
0.20650000000000002	-0.0	-0.0	-0.0	-0.0	-0.0	-0.0	-7.051014423370361	-7.571354389190674	-525.1357421875	-0.0	-0.0	-0.0	-0.0	-0.0	-0.0	160055.171875	35786.0859375	-3743.608154296875
0.20700000000000002	-0.0	-0.0	-0.0	-0.0	-0.0	-0.0	-7.629127502441406	-7.510560512542725	-521.7166748046875	-0.0	-0.0	-0.0	-0.0	-0.0	-0.0	159407.265625	35979.98046875	-3976.24951171875
0.20750000000000002	-0.0	-0.0	-0.0	-0.0	-0.0	-0.0	-8.360113143920898	-7.115145206451416	-521.4649047851562	-0.0	-0.0	-0.0	-0.0	-0.0	-0.0	158648.234375	36537.40234375	-4122.7568359375
0.20800000000000002	-0.0	-0.0	-0.0	-0.0	-0.0	-0.0	-9.648234367370604	-6.578100681304932	-518.7409057617188	-0.0	-0.0	-0.0	-0.0	-0.0	-0.0	158019.921875	36828.48046875	-4414.26904296875
0.2085	-0.0	-0.0	-0.0	-0.0	-0.0	-0.0	-9.952794075012209	-6.384223461151123	-517.9585571289062	-0.0	-0.0	-0.0	-0.0	-0.0	-0.0	157552.578125	37334.9921875	-4553.044921875
0.209	-0.0	-0.0	-0.0	-0.0	-0.0	-0.0	-10.26934814453125	-5.875533103942871	-517.6088256835938	-0.0	-0.0	-0.0	-0.0	-0.0	-0.0	156490.296875	37755.1015625	-4606.7216796875
